<?xml version="1.0" encoding="utf-8"?>
<!-- Generator: Adobe Illustrator 15.1.0, SVG Export Plug-In . SVG Version: 6.00 Build 0)  -->
<!DOCTYPE svg PUBLIC "-//W3C//DTD SVG 1.1//EN" "http://www.w3.org/Graphics/SVG/1.1/DTD/svg11.dtd">
<svg version="1.1" id="settings" xmlns="http://www.w3.org/2000/svg" xmlns:xlink="http://www.w3.org/1999/xlink" x="0px" y="0px"
	 width="20px" height="20px" viewBox="6.5 498.445 20 20" enable-background="new 6.5 498.445 20 20" xml:space="preserve">
<path fill="#E66046" d="M26.5,509.701v-2.411l-3.2-0.904c-0.1-0.403-0.3-0.704-0.5-1.105l1.6-2.915l-1.7-1.809l-2.9,1.607
	c-0.3-0.201-0.7-0.302-1.1-0.503l-0.9-3.216h-2.5l-0.9,3.216c-0.4,0.102-0.7,0.302-1.1,0.503l-3-1.607l-1.7,1.709l1.6,2.913
	c-0.2,0.402-0.4,0.704-0.5,1.106l-3.2,1.005v2.411l3.2,0.905c0.1,0.401,0.3,0.704,0.5,1.105l-1.6,2.915l1.7,1.708l2.9-1.608
	c0.3,0.201,0.7,0.302,1.1,0.503l0.9,3.216h2.4l0.9-3.216c0.4-0.101,0.7-0.302,1.1-0.503l2.9,1.608l1.7-1.708l-1.6-2.915
	c0.2-0.302,0.3-0.704,0.5-1.105L26.5,509.701z M16.5,511.31c-1.5,0-2.8-1.308-2.8-2.815c0-1.507,1.3-2.813,2.8-2.813
	s2.8,1.307,2.8,2.813C19.3,510.002,18,511.31,16.5,511.31z"/>
</svg>
